<svg width="78" height="70" viewBox="0 0 78 70" fill="none" xmlns="http://www.w3.org/2000/svg">
<g filter="url(#filter0_d_3_2855)">
<path d="M62.1311 25.9001L69.0593 29.9001L73.0593 22.9719L66.1311 18.9719L62.1311 25.9001ZM10.7983 31.3725C6.53057 32.516 3.99791 36.9027 5.14144 41.1705C6.28498 45.4382 10.6717 47.9709 14.9394 46.8273L10.7983 31.3725ZM51.028 61.1311L69.0593 29.9001L55.2029 21.9001L37.1716 53.1311L51.028 61.1311ZM66.1311 18.9719L34.9001 0.940723L26.9001 14.7971L58.1311 32.8283L66.1311 18.9719ZM60.0605 18.1727L10.7983 31.3725L14.9394 46.8273L64.2016 33.6276L60.0605 18.1727Z" fill="#273B4A"/>
</g>
<defs>
<filter id="filter0_d_3_2855" x="0.866882" y="0.940674" width="76.1924" height="68.1904" filterUnits="userSpaceOnUse" color-interpolation-filters="sRGB">
<feFlood flood-opacity="0" result="BackgroundImageFix"/>
<feColorMatrix in="SourceAlpha" type="matrix" values="0 0 0 0 0 0 0 0 0 0 0 0 0 0 0 0 0 0 127 0" result="hardAlpha"/>
<feOffset dy="4"/>
<feGaussianBlur stdDeviation="2"/>
<feComposite in2="hardAlpha" operator="out"/>
<feColorMatrix type="matrix" values="0 0 0 0 0 0 0 0 0 0 0 0 0 0 0 0 0 0 0.25 0"/>
<feBlend mode="normal" in2="BackgroundImageFix" result="effect1_dropShadow_3_2855"/>
<feBlend mode="normal" in="SourceGraphic" in2="effect1_dropShadow_3_2855" result="shape"/>
</filter>
</defs>
</svg>
