<svg width="110" height="110" viewBox="0 0 110 110" fill="none" xmlns="http://www.w3.org/2000/svg">
<g filter="url(#filter0_d_3_2723)">
<path d="M95.9759 10.6586L105.976 10.6586L105.976 0.658619L95.9759 0.658618L95.9759 10.6586ZM7.58753 84.9048C3.68228 88.8101 3.68229 95.1417 7.58753 99.047C11.4928 102.952 17.8244 102.952 21.7297 99.047L7.58753 84.9048ZM105.976 91.9759L105.976 10.6586L85.9759 10.6586L85.9759 91.9759L105.976 91.9759ZM95.9759 0.658618L14.6586 0.658614L14.6586 20.6586L95.9759 20.6586L95.9759 0.658618ZM88.9048 3.58755L7.58753 84.9048L21.7297 99.047L103.047 17.7297L88.9048 3.58755Z" fill="#273B4A"/>
</g>
<defs>
<filter id="filter0_d_3_2723" x="0.6586" y="0.65863" width="109.317" height="109.317" filterUnits="userSpaceOnUse" color-interpolation-filters="sRGB">
<feFlood flood-opacity="0" result="BackgroundImageFix"/>
<feColorMatrix in="SourceAlpha" type="matrix" values="0 0 0 0 0 0 0 0 0 0 0 0 0 0 0 0 0 0 127 0" result="hardAlpha"/>
<feOffset dy="4"/>
<feGaussianBlur stdDeviation="2"/>
<feComposite in2="hardAlpha" operator="out"/>
<feColorMatrix type="matrix" values="0 0 0 0 0 0 0 0 0 0 0 0 0 0 0 0 0 0 0.25 0"/>
<feBlend mode="normal" in2="BackgroundImageFix" result="effect1_dropShadow_3_2723"/>
<feBlend mode="normal" in="SourceGraphic" in2="effect1_dropShadow_3_2723" result="shape"/>
</filter>
</defs>
</svg>
