<svg width="45" height="45" viewBox="0 0 45 45" fill="none" xmlns="http://www.w3.org/2000/svg">
<path d="M45 22.5C45 34.9264 34.9264 45 22.5 45C10.0736 45 0 34.9264 0 22.5C0 10.0736 10.0736 0 22.5 0C34.9264 0 45 10.0736 45 22.5Z" fill="#273B4A"/>
<rect width="27" height="20" transform="translate(9 14)" fill="white"/>
<path d="M10.5 15.4286L22.8429 24L34.4999 15.4286M31.2003 34H13.8003C12.1201 34 11.2794 34 10.6377 33.6885C10.0732 33.4146 9.6146 32.9776 9.32698 32.44C9 31.8289 9 31.0287 9 29.4285V18.5714C9 16.9712 9 16.1712 9.32698 15.5601C9.6146 15.0225 10.0732 14.5853 10.6377 14.3114C11.2794 14 12.1201 14 13.8003 14H31.2003C32.8805 14 33.7199 14 34.3617 14.3114C34.9262 14.5853 35.3857 15.0225 35.6733 15.5601C36 16.1706 36 16.9696 36 18.5667V29.4332C36 31.0302 36 31.8295 35.6733 32.44C35.3857 32.9776 34.9262 33.4146 34.3617 33.6885C33.7199 34 32.8805 34 31.2003 34Z" stroke="#273B4A" stroke-width="2" stroke-linecap="round" stroke-linejoin="round"/>
</svg>
