<svg width="35" height="20" viewBox="0 0 35 20" fill="none" xmlns="http://www.w3.org/2000/svg">
<rect x="1.22217" y="0.25" width="32.9444" height="19.5" rx="1.75" fill="white" stroke="#F5F5F5" stroke-width="0.5"/>
<mask id="mask0_240_11014" style="mask-type:luminance" maskUnits="userSpaceOnUse" x="0" y="0" width="35" height="20">
<rect x="1.22217" y="0.25" width="32.9444" height="19.5" rx="1.75" fill="white" stroke="white" stroke-width="0.5"/>
</mask>
<g mask="url(#mask0_240_11014)">
<path fill-rule="evenodd" clip-rule="evenodd" d="M17.6944 14.6667C20.7729 14.6667 23.2685 12.5773 23.2685 10C23.2685 7.42267 20.7729 5.33333 17.6944 5.33333C14.616 5.33333 12.1204 7.42267 12.1204 10C12.1204 12.5773 14.616 14.6667 17.6944 14.6667Z" fill="#E01B41"/>
<mask id="mask1_240_11014" style="mask-type:luminance" maskUnits="userSpaceOnUse" x="12" y="5" width="12" height="10">
<path fill-rule="evenodd" clip-rule="evenodd" d="M17.6944 14.6667C20.7729 14.6667 23.2685 12.5773 23.2685 10C23.2685 7.42267 20.7729 5.33333 17.6944 5.33333C14.616 5.33333 12.1204 7.42267 12.1204 10C12.1204 12.5773 14.616 14.6667 17.6944 14.6667Z" fill="white"/>
</mask>
<g mask="url(#mask1_240_11014)">
<path fill-rule="evenodd" clip-rule="evenodd" d="M12.1204 10.6667C13.713 11.9167 16.1019 12.6667 17.6945 10.6667C19.2871 8.66667 22.4723 8.66667 23.2686 10.6667C24.0649 12.6667 23.2686 14.6667 23.2686 14.6667H12.1204C12.1204 14.6667 10.5278 9.41667 12.1204 10.6667Z" fill="#0E4B9C"/>
</g>
<path opacity="0.75" fill-rule="evenodd" clip-rule="evenodd" d="M25.765 3.78955C25.5993 3.86967 25.5497 4.05747 25.6542 4.20903L27.6646 7.12431C27.7691 7.27586 27.9882 7.33377 28.1539 7.25365L28.9329 6.87711C29.0987 6.797 29.1483 6.60919 29.0438 6.45764L27.0334 3.54236C26.9289 3.39081 26.7098 3.3329 26.544 3.41301L25.765 3.78955ZM23.6962 4.78955C23.5305 4.86967 23.4808 5.05747 23.5853 5.20903L25.5957 8.12431C25.7003 8.27586 25.9193 8.33377 26.0851 8.25365L26.8641 7.87711C27.0298 7.797 27.0795 7.60919 26.975 7.45764L24.9646 4.54236C24.86 4.39081 24.641 4.3329 24.4752 4.41301L23.6962 4.78955ZM6.34501 13.5424C6.2405 13.3908 6.29014 13.203 6.45589 13.1229L7.23489 12.7463C7.40063 12.6662 7.61972 12.7241 7.72424 12.8757L9.73465 15.791C9.83916 15.9425 9.78952 16.1303 9.62377 16.2104L8.84477 16.587C8.67903 16.6671 8.45994 16.6092 8.35543 16.4576L6.34501 13.5424ZM8.52472 12.1229C8.35898 12.203 8.30934 12.3908 8.41385 12.5424L10.4243 15.4576C10.5288 15.6092 10.7479 15.6671 10.9136 15.587L11.6926 15.2104C11.8584 15.1303 11.908 14.9425 11.8035 14.791L9.79307 11.8757C9.68856 11.7241 9.46947 11.6662 9.30372 11.7463L8.52472 12.1229ZM25.5957 11.8757C25.7003 11.7241 25.9193 11.6662 26.0851 11.7463L26.8641 12.1229C27.0298 12.203 27.0795 12.3908 26.975 12.5424L24.9646 15.4576C24.86 15.6092 24.641 15.6671 24.4752 15.587L23.6962 15.2104C23.5305 15.1303 23.4808 14.9425 23.5853 14.791L25.5957 11.8757ZM28.1539 12.7463C27.9882 12.6662 27.7691 12.7241 27.6646 12.8757L25.6542 15.791C25.5497 15.9425 25.5993 16.1303 25.765 16.2104L26.544 16.587C26.7098 16.6671 26.9289 16.6092 27.0334 16.4576L29.0438 13.5424C29.1483 13.3908 29.0987 13.203 28.9329 13.1229L28.1539 12.7463ZM8.35543 3.54236C8.45994 3.39081 8.67903 3.3329 8.84477 3.41301L9.62378 3.78955C9.78952 3.86967 9.83916 4.05747 9.73465 4.20903L7.72424 7.12431C7.61972 7.27586 7.40063 7.33377 7.23489 7.25365L6.45589 6.87711C6.29014 6.797 6.2405 6.60919 6.34501 6.45764L8.35543 3.54236ZM10.9136 4.41301C10.7479 4.3329 10.5288 4.39081 10.4243 4.54236L8.41385 7.45764C8.30934 7.60919 8.35898 7.797 8.52472 7.87711L9.30372 8.25365C9.46947 8.33377 9.68856 8.27586 9.79307 8.12431L11.8035 5.20903C11.908 5.05747 11.8584 4.86967 11.6926 4.78955L10.9136 4.41301Z" fill="#262626"/>
</g>
<rect x="1.47217" y="0.5" width="32.4444" height="19" stroke="#EEEEEE"/>
</svg>
