<svg width="142" height="97" viewBox="0 0 142 97" fill="none" xmlns="http://www.w3.org/2000/svg">
<path d="M48.3451 38.105C49.2119 36.6098 50.093 35.129 50.9216 33.6144C51.2836 32.9488 51.7027 32.698 52.4695 32.7028C61.6374 32.7317 70.8053 32.7269 79.9685 32.7269C80.421 32.7269 80.8686 32.7269 81.5497 32.7269L88.6269 32.6449C89.6746 34.4923 90.7271 36.3396 91.7844 38.1918C85.5026 38.1918 79.4732 38.1918 73.3343 38.1918C73.3343 47.284 73.3343 56.2411 73.3343 65.285C71.2292 65.285 69.2385 65.2947 67.2477 65.2657C67.0953 65.2609 66.8476 64.9715 66.8191 64.7882C66.7524 64.3927 66.7953 63.9827 66.7953 63.5775C66.7953 55.6767 66.7953 47.7712 66.7953 39.8704C66.7953 39.3543 66.7953 38.8382 66.7953 38.298C66.6143 38.2594 66.5095 38.216 66.4047 38.216C62.9185 38.2111 59.4371 38.2015 55.9509 38.2304" fill="#3CC1B3"/>
<path d="M55.9461 38.2256C55.6746 38.2256 55.2888 38.4474 55.1555 38.679C51.355 45.3015 47.5735 51.9386 43.7968 58.5756C43.7396 58.6721 43.7158 58.7878 43.6206 59.0338C43.9635 59.0579 44.254 59.0917 44.5445 59.0917C50.0833 59.0917 55.627 59.1062 61.1658 59.0676C61.9945 59.0628 62.3327 59.2364 62.2898 60.1625C62.2088 61.8314 62.266 63.51 62.266 65.256C52.4694 65.256 42.7538 65.256 32.9095 65.256C33.3191 64.4988 33.6858 63.7945 34.0764 63.1096C38.6865 55.0255 43.2967 46.9415 47.9116 38.8574C48.0545 38.6066 48.1974 38.3558 48.345 38.105" fill="#3CC1B3"/>
<path d="M81.5497 32.7269C77.6872 25.9404 73.9248 19.3226 70.0814 12.565C69.7194 13.1487 69.4146 13.6117 69.1432 14.094C66.6143 18.5219 64.0853 22.9498 61.585 27.397C61.2802 27.9373 60.9563 28.1784 60.3181 28.164C58.275 28.1206 56.2319 28.1495 54.0173 28.1495C59.3942 18.7101 64.6902 9.4105 70.0528 0C76.2537 10.8961 82.4069 21.7102 88.6268 32.6449" fill="#3CC1B3"/>
<path d="M77.8253 65.2754C77.8253 63.3315 77.8206 61.46 77.8301 59.5837C77.8349 58.9326 78.3349 59.0773 78.7064 59.0773C83.1023 59.0724 87.4981 59.0724 91.894 59.0724C93.3751 59.0724 94.8563 59.0724 96.5517 59.0724C94.9515 56.2556 93.437 53.5689 91.913 50.8919C90.3985 48.2246 88.8745 45.562 87.2981 42.7934C87.6696 42.7548 87.8553 42.7162 88.0458 42.7114C89.9318 42.7066 91.813 42.6873 93.699 42.7307C94.0323 42.7403 94.5134 42.9381 94.661 43.2034C98.7473 50.3227 102.8 57.4614 106.858 64.6001C106.967 64.793 107.058 65.0004 107.196 65.2802C97.3995 65.2754 87.6886 65.2754 77.8253 65.2754Z" fill="#3CC1B3"/>
<path d="M36.3481 88.9825C36.3814 85.3456 39.3247 82.466 42.9919 82.4901C46.7876 82.5143 49.7785 85.418 49.7642 89.0693C49.75 92.6483 46.6924 95.5906 42.9919 95.5761C39.2676 95.5568 36.3195 92.629 36.3481 88.9825ZM38.1007 88.9825C38.0912 91.9875 40.2439 94.3992 42.9443 94.4136C45.7399 94.4281 48.0021 92.0405 48.0021 89.0741C48.0069 86.0788 45.7732 83.6429 43.0252 83.6333C40.2725 83.6236 38.1103 85.9726 38.1007 88.9825Z" fill="#3CC1B3" stroke="#3CC1B3" stroke-miterlimit="10"/>
<path d="M74.8106 82.4612C74.8106 84.1591 74.8439 85.8087 74.7963 87.4487C74.7725 88.1818 75.0154 88.3844 75.7203 88.3699C77.711 88.3265 79.7065 88.3555 81.8163 88.3555C81.8163 86.7927 81.8116 85.3264 81.8163 83.86C81.8211 82.7362 82.2831 82.3599 83.5451 82.5191C83.5451 83.0786 83.5404 83.6526 83.5451 84.2218C83.5642 87.4342 83.5785 90.6466 83.5975 93.859C83.6023 94.5391 83.4832 95.1276 82.7212 95.3543C82.1164 95.5375 81.8163 95.4362 81.8306 94.7031C81.864 93.0004 81.8401 91.2929 81.8401 89.5179C79.4922 89.5179 77.23 89.5179 74.8297 89.5179C74.8297 91.0421 74.8344 92.5325 74.8297 94.023C74.8249 95.142 74.3534 95.5182 73.1389 95.3494C73.1247 95.1083 73.1008 94.8526 73.1008 94.6018C73.0913 91.0711 73.0818 87.5403 73.077 84.0096C73.077 82.7941 73.4104 82.4757 74.8106 82.4612Z" fill="#3CC1B3" stroke="#3CC1B3" stroke-miterlimit="10"/>
<path d="M26.8516 95.5183C26.8516 93.5986 26.8516 91.6692 26.8516 89.6675C24.5036 89.6675 22.2414 89.6675 19.8173 89.6675C19.8173 90.4489 19.8173 91.2448 19.8173 92.0455C19.8173 92.74 19.8268 93.4346 19.8173 94.1292C19.803 95.2675 19.3934 95.6244 18.1742 95.5521C18.1456 95.3977 18.0932 95.2386 18.0932 95.0746C18.0837 91.4329 18.0694 87.7864 18.0742 84.1447C18.0742 82.9147 18.4361 82.5964 19.7744 82.635C19.7744 84.5257 19.7744 86.4262 19.7744 88.4086C22.1414 88.4086 24.4274 88.4086 26.823 88.4086C26.823 86.8989 26.7897 85.4325 26.8325 83.971C26.8659 82.8327 27.2374 82.5578 28.4518 82.6398C28.4804 82.7652 28.5328 82.9002 28.5328 83.0353C28.5566 86.7059 28.5899 90.3814 28.5947 94.052C28.5947 95.2145 28.1232 95.61 26.8516 95.5183Z" fill="#3CC1B3" stroke="#3CC1B3" stroke-miterlimit="10"/>
<path d="M97.9376 89.407C97.9376 90.936 97.9376 92.3493 97.9376 93.7625C97.9376 95.007 97.6662 95.2867 96.2707 95.3784C96.2469 95.142 96.1993 94.9009 96.1993 94.6549C96.1802 91.0132 96.1707 87.3715 96.1612 83.7298C96.1564 82.659 96.2898 82.5095 97.3233 82.495C99.2616 82.4757 101.2 82.4613 103.138 82.4805C105.062 82.5047 106.639 84.0675 106.644 85.9052C106.648 87.7574 105.124 89.3105 103.191 89.3925C102.338 89.4263 101.481 89.4022 100.624 89.4022C99.776 89.407 98.9235 89.407 97.9376 89.407ZM97.9519 88.2011C99.7998 88.2011 101.557 88.2059 103.315 88.1915C103.5 88.1915 103.705 88.0998 103.862 87.9985C104.681 87.4728 105.091 86.1753 104.777 85.1479C104.434 84.0337 103.829 83.5996 102.629 83.5948C102.143 83.5948 101.662 83.5948 101.176 83.5948C100.109 83.5948 99.0425 83.5948 97.9472 83.5948C97.9519 85.1913 97.9519 86.6287 97.9519 88.2011Z" fill="#3CC1B3" stroke="#3CC1B3" stroke-miterlimit="10"/>
<path d="M122.717 95.4072C122.241 94.1821 121.736 92.9618 121.298 91.7221C121.122 91.2302 120.869 91.0565 120.365 91.0758C119.255 91.1144 118.14 91.1192 117.026 91.0951C116.488 91.0855 116.216 91.288 116.04 91.809C115.621 93.0293 115.135 94.2255 114.678 95.4265C113.478 94.9538 113.249 94.4715 113.659 93.4152C114.954 90.0532 116.25 86.6865 117.574 83.3342C117.755 82.8808 117.817 82.3213 118.631 82.3213C119.407 82.3213 119.531 82.7892 119.726 83.2812C121.069 86.6527 122.403 90.0243 123.722 93.4055C124.127 94.4474 123.889 94.9153 122.717 95.4072ZM118.65 84.9018C117.988 86.6961 117.407 88.2686 116.816 89.8651C118.126 89.8651 119.302 89.8651 120.569 89.8651C119.936 88.2252 119.336 86.6768 118.65 84.9018Z" fill="#3CC1B3" stroke="#3CC1B3" stroke-miterlimit="10"/>
<path d="M135.209 87.3378C136.319 85.7847 137.362 84.3425 138.396 82.8858C138.91 82.1623 139.543 82.0272 140.444 82.4324C140.186 82.8279 139.977 83.1848 139.734 83.5176C138.681 84.9936 137.591 86.4455 136.581 87.9504C136.3 88.37 136.133 88.944 136.114 89.4553C136.057 90.9023 136.11 92.3493 136.1 93.7964C136.095 94.9347 135.681 95.2916 134.347 95.2096C134.347 93.9893 134.224 92.74 134.376 91.5245C134.647 89.3443 133.909 87.6224 132.523 86.021C131.595 84.9454 130.833 83.7154 129.994 82.5481C130.885 81.9935 131.442 82.0899 132.023 82.8906C133.071 84.3328 134.1 85.7895 135.209 87.3378Z" fill="#3CC1B3" stroke="#3CC1B3" stroke-miterlimit="10"/>
<path d="M60.3133 83.7637C58.7941 83.7637 57.4368 83.7637 56.0318 83.7637C55.9556 82.8183 56.5176 82.6494 57.1367 82.6253C58.2511 82.5819 59.3656 82.5819 60.4753 82.5771C62.4136 82.5723 64.352 82.5771 66.3237 82.5771C66.3142 83.4598 65.7998 83.6817 65.1473 83.6913C64.152 83.7106 63.1566 83.6961 62.085 83.6961C62.066 84.1495 62.0374 84.4582 62.0374 84.7621C62.0421 87.8009 62.0564 90.8396 62.0612 93.8784C62.0612 95.1276 61.7135 95.4605 60.3086 95.4171C60.3133 91.5776 60.3133 87.7189 60.3133 83.7637Z" fill="#3CC1B3" stroke="#3CC1B3" stroke-miterlimit="10"/>
<path d="M5.301 95.5279C5.301 91.6837 5.301 87.8249 5.301 83.8552C3.79127 83.8552 2.41013 83.8552 1.00041 83.8552C0.986121 83.1269 1.34808 82.8037 1.87672 82.7989C5.01049 82.77 8.14902 82.7844 11.3161 82.7844C11.3161 83.5321 10.8923 83.7974 10.2922 83.8215C9.49206 83.8552 8.69195 83.8697 7.8966 83.8311C7.24413 83.8022 7.01076 83.9951 7.02029 84.7042C7.06791 87.8587 7.06315 91.0132 7.06315 94.1677C7.05839 95.2868 6.57737 95.6775 5.301 95.5279Z" fill="#3CC1B3" stroke="#3CC1B3" stroke-miterlimit="10"/>
</svg>
