<svg width="35" height="20" viewBox="0 0 35 20" fill="none" xmlns="http://www.w3.org/2000/svg">
<rect x="0.972168" width="33.4444" height="20" rx="2" fill="white"/>
<mask id="mask0_240_10996" style="mask-type:luminance" maskUnits="userSpaceOnUse" x="0" y="0" width="35" height="20">
<rect x="0.972168" width="33.4444" height="20" rx="2" fill="white"/>
</mask>
<g mask="url(#mask0_240_10996)">
<path fill-rule="evenodd" clip-rule="evenodd" d="M34.4166 0H16.8981V1.33333H34.4166V0ZM34.4166 2.66667H16.8981V4H34.4166V2.66667ZM16.8981 5.33333H34.4166V6.66667H16.8981V5.33333ZM34.4166 8H16.8981V9.33333H34.4166V8ZM0.972168 10.6667H34.4166V12H0.972168V10.6667ZM34.4166 13.3333H0.972168V14.6667H34.4166V13.3333ZM0.972168 16H34.4166V17.3333H0.972168V16ZM34.4166 18.6667H0.972168V20H34.4166V18.6667Z" fill="#E1244A"/>
<rect x="0.972168" width="19.1111" height="10.6667" fill="#0C3F8E"/>
<path fill-rule="evenodd" clip-rule="evenodd" d="M8.93525 9.33333C10.0641 9.33333 11.1016 9.00555 11.9192 8.45747C11.4861 8.59273 11.0173 8.66667 10.5278 8.66667C8.32893 8.66667 6.54636 7.17428 6.54636 5.33333C6.54636 3.49238 8.32893 2 10.5278 2C11.0173 2 11.4861 2.07393 11.9192 2.20919C11.1016 1.66111 10.0641 1.33333 8.93525 1.33333C6.29655 1.33333 4.15747 3.12419 4.15747 5.33333C4.15747 7.54247 6.29655 9.33333 8.93525 9.33333ZM12.331 7.73592L13.713 6.42667L15.095 7.73592L14.734 6.01501L16.8184 5.92672L14.9862 5.09004L16.2033 3.67069L14.2796 4.34827L13.713 2.66667L13.1464 4.34827L11.2227 3.67069L12.4398 5.09004L10.6077 5.92672L12.692 6.01501L12.331 7.73592Z" fill="#FFD34F"/>
</g>
</svg>
