<svg width="371" height="348" viewBox="0 0 371 348" fill="none" xmlns="http://www.w3.org/2000/svg">
<rect width="371" height="348" fill="white"/>
<g filter="url(#filter0_b_0_1)">
<rect width="371" height="348" fill="white"/>
</g>
<g filter="url(#filter1_d_0_1)">
<ellipse cx="299.058" cy="156.585" rx="33.6494" ry="35.3464" fill="white"/>
</g>
<path d="M328.221 163.914C324.288 180.145 308.311 190.022 292.534 185.975C276.764 181.929 267.163 165.489 271.098 149.259C275.029 133.027 291.007 123.148 306.779 127.195C322.555 131.241 332.154 147.683 328.221 163.914V163.914Z" fill="#F6A33D"/>
<path d="M312.642 152.269C313.228 148.238 310.245 146.07 306.166 144.625L307.489 139.164L304.258 138.335L302.97 143.652C302.121 143.435 301.248 143.229 300.382 143.026L301.679 137.673L298.45 136.845L297.126 142.304C296.423 142.139 295.733 141.977 295.063 141.805L295.066 141.788L290.611 140.643L289.751 144.194C289.751 144.194 292.149 144.759 292.098 144.794C293.406 145.13 293.643 146.021 293.603 146.727L292.096 152.949C292.186 152.972 292.303 153.006 292.432 153.059C292.324 153.032 292.209 153.002 292.091 152.972L289.978 161.687C289.818 162.096 289.412 162.71 288.497 162.477C288.529 162.525 286.149 161.874 286.149 161.874L284.545 165.679L288.749 166.757C289.531 166.959 290.298 167.17 291.053 167.369L289.716 172.892L292.943 173.721L294.267 168.256C295.148 168.502 296.004 168.729 296.842 168.943L295.522 174.383L298.753 175.211L300.09 169.698C305.599 170.771 309.742 170.338 311.486 165.211C312.891 161.083 311.416 158.702 308.517 157.149C310.628 156.649 312.218 155.22 312.642 152.269V152.269ZM305.26 162.919C304.262 167.047 297.507 164.815 295.317 164.256L297.091 156.938C299.281 157.501 306.304 158.614 305.26 162.919ZM306.26 152.209C305.349 155.964 299.726 154.056 297.903 153.589L299.511 146.952C301.335 147.42 307.209 148.292 306.26 152.209Z" fill="white"/>
<rect x="247" y="202" width="105" height="24" rx="12" fill="#EEEEEE"/>
<path d="M264.965 218.15C263.715 218.15 262.715 217.67 261.965 216.71C261.215 215.74 260.84 214.42 260.84 212.75C260.84 211.08 261.215 209.765 261.965 208.805C262.715 207.835 263.71 207.35 264.95 207.35C266.19 207.35 267.185 207.835 267.935 208.805C268.695 209.765 269.075 211.08 269.075 212.75C269.075 214.42 268.695 215.74 267.935 216.71C267.185 217.67 266.195 218.15 264.965 218.15ZM264.965 217.04C265.825 217.04 266.515 216.66 267.035 215.9C267.565 215.13 267.83 214.08 267.83 212.75C267.83 211.42 267.565 210.375 267.035 209.615C266.505 208.845 265.81 208.46 264.95 208.46C264.09 208.46 263.395 208.845 262.865 209.615C262.345 210.375 262.085 211.42 262.085 212.75C262.085 214.08 262.345 215.13 262.865 215.9C263.395 216.66 264.095 217.04 264.965 217.04ZM272.182 218.075C271.932 218.075 271.722 217.995 271.552 217.835C271.392 217.665 271.312 217.455 271.312 217.205C271.312 216.965 271.392 216.765 271.552 216.605C271.722 216.435 271.932 216.35 272.182 216.35C272.422 216.35 272.627 216.435 272.797 216.605C272.977 216.765 273.067 216.965 273.067 217.205C273.067 217.445 272.977 217.65 272.797 217.82C272.627 217.99 272.422 218.075 272.182 218.075ZM279.423 218.15C278.173 218.15 277.173 217.67 276.423 216.71C275.673 215.74 275.298 214.42 275.298 212.75C275.298 211.08 275.673 209.765 276.423 208.805C277.173 207.835 278.168 207.35 279.408 207.35C280.648 207.35 281.643 207.835 282.393 208.805C283.153 209.765 283.533 211.08 283.533 212.75C283.533 214.42 283.153 215.74 282.393 216.71C281.643 217.67 280.653 218.15 279.423 218.15ZM279.423 217.04C280.283 217.04 280.973 216.66 281.493 215.9C282.023 215.13 282.288 214.08 282.288 212.75C282.288 211.42 282.023 210.375 281.493 209.615C280.963 208.845 280.268 208.46 279.408 208.46C278.548 208.46 277.853 208.845 277.323 209.615C276.803 210.375 276.543 211.42 276.543 212.75C276.543 214.08 276.803 215.13 277.323 215.9C277.853 216.66 278.553 217.04 279.423 217.04ZM286.97 218V208.805C286.32 209.175 285.58 209.36 284.75 209.36V208.265C285.6 208.265 286.38 208.01 287.09 207.5H288.2V218H286.97ZM290.039 218V217.16L292.694 214.49C293.734 213.44 294.404 212.725 294.704 212.345C295.324 211.555 295.634 210.87 295.634 210.29C295.634 209.74 295.444 209.295 295.064 208.955C294.684 208.605 294.184 208.43 293.564 208.43C292.994 208.43 292.504 208.58 292.094 208.88C291.694 209.17 291.444 209.57 291.344 210.08L290.294 209.72C290.464 208.98 290.844 208.4 291.434 207.98C292.034 207.56 292.759 207.35 293.609 207.35C294.569 207.35 295.354 207.61 295.964 208.13C296.584 208.65 296.894 209.325 296.894 210.155C296.894 210.535 296.819 210.92 296.669 211.31C296.529 211.69 296.304 212.075 295.994 212.465C295.694 212.855 295.429 213.175 295.199 213.425C294.979 213.675 294.674 213.995 294.284 214.385C294.184 214.485 294.109 214.56 294.059 214.61L291.779 216.905H296.984V218H290.039ZM300.285 218V208.805C299.635 209.175 298.895 209.36 298.065 209.36V208.265C298.915 208.265 299.695 208.01 300.405 207.5H301.515V218H300.285ZM307.698 218V207.5H311.973C313.013 207.5 313.813 207.745 314.373 208.235C314.933 208.715 315.213 209.38 315.213 210.23C315.213 211.26 314.713 212 313.713 212.45C314.263 212.68 314.688 213.015 314.988 213.455C315.288 213.885 315.438 214.395 315.438 214.985C315.438 215.905 315.143 216.64 314.553 217.19C313.963 217.73 313.113 218 312.003 218H307.698ZM308.928 211.955H311.823C312.503 211.955 313.023 211.81 313.383 211.52C313.743 211.23 313.923 210.815 313.923 210.275C313.923 209.145 313.223 208.58 311.823 208.58H308.928V211.955ZM308.928 216.905H311.883C312.633 216.905 313.198 216.73 313.578 216.38C313.968 216.02 314.163 215.535 314.163 214.925C314.163 214.345 313.963 213.89 313.563 213.56C313.163 213.22 312.603 213.05 311.883 213.05H308.928V216.905ZM319.66 218V208.64H316.3V207.5H324.25V208.64H320.89V218H319.66ZM330.145 218.15C328.665 218.15 327.43 217.645 326.44 216.635C325.45 215.625 324.955 214.325 324.955 212.735C324.955 211.135 325.445 209.84 326.425 208.85C327.415 207.85 328.655 207.35 330.145 207.35C331.315 207.35 332.335 207.64 333.205 208.22C334.075 208.79 334.635 209.56 334.885 210.53L333.685 210.92C333.505 210.23 333.09 209.665 332.44 209.225C331.8 208.775 331.035 208.55 330.145 208.55C329.025 208.55 328.095 208.935 327.355 209.705C326.625 210.475 326.26 211.485 326.26 212.735C326.26 213.985 326.625 215 327.355 215.78C328.095 216.56 329.025 216.95 330.145 216.95C331.035 216.95 331.805 216.73 332.455 216.29C333.105 215.84 333.52 215.265 333.7 214.565L334.885 214.97C334.635 215.94 334.075 216.715 333.205 217.295C332.335 217.865 331.315 218.15 330.145 218.15Z" fill="#273B4A"/>
<g filter="url(#filter2_d_0_1)">
<ellipse cx="80.0263" cy="154.267" rx="33.6494" ry="35.3464" fill="white"/>
</g>
<rect x="21" y="198" width="120" height="26" rx="13" fill="#EEEEEE"/>
<circle cx="79.5" cy="154.5" r="30.5" fill="#ABF2D3" fill-opacity="0.29"/>
<path d="M37.17 217.5V216.105C36.35 215.995 35.65 215.71 35.07 215.25C34.49 214.79 34.11 214.195 33.93 213.465L35.07 213.075C35.19 213.565 35.44 213.975 35.82 214.305C36.2 214.625 36.65 214.83 37.17 214.92V211.155C36.71 211.045 36.325 210.93 36.015 210.81C35.705 210.69 35.385 210.525 35.055 210.315C34.725 210.105 34.475 209.83 34.305 209.49C34.135 209.14 34.05 208.73 34.05 208.26C34.05 207.43 34.33 206.76 34.89 206.25C35.46 205.73 36.22 205.435 37.17 205.365V204.3H38.205V205.395C38.995 205.495 39.665 205.775 40.215 206.235C40.765 206.695 41.125 207.295 41.295 208.035L40.155 208.425C40.035 207.925 39.8 207.52 39.45 207.21C39.11 206.89 38.695 206.68 38.205 206.58V210.225C38.685 210.325 39.08 210.43 39.39 210.54C39.7 210.64 40.04 210.795 40.41 211.005C40.79 211.215 41.075 211.505 41.265 211.875C41.465 212.235 41.565 212.665 41.565 213.165C41.565 214.065 41.26 214.775 40.65 215.295C40.05 215.805 39.235 216.085 38.205 216.135V217.5H37.17ZM37.17 209.985V206.52C36.63 206.58 36.195 206.765 35.865 207.075C35.535 207.375 35.37 207.755 35.37 208.215C35.37 208.715 35.525 209.095 35.835 209.355C36.145 209.615 36.59 209.825 37.17 209.985ZM38.205 214.98C38.845 214.93 39.35 214.76 39.72 214.47C40.09 214.17 40.275 213.74 40.275 213.18C40.275 212.65 40.095 212.26 39.735 212.01C39.385 211.76 38.875 211.56 38.205 211.41V214.98ZM45.0872 216V206.805C44.4372 207.175 43.6972 207.36 42.8672 207.36V206.265C43.7172 206.265 44.4972 206.01 45.2072 205.5H46.3172V216H45.0872ZM48.1567 216V215.16L50.8117 212.49C51.8517 211.44 52.5217 210.725 52.8217 210.345C53.4417 209.555 53.7517 208.87 53.7517 208.29C53.7517 207.74 53.5617 207.295 53.1817 206.955C52.8017 206.605 52.3017 206.43 51.6817 206.43C51.1117 206.43 50.6217 206.58 50.2117 206.88C49.8117 207.17 49.5617 207.57 49.4617 208.08L48.4117 207.72C48.5817 206.98 48.9617 206.4 49.5517 205.98C50.1517 205.56 50.8767 205.35 51.7267 205.35C52.6867 205.35 53.4717 205.61 54.0817 206.13C54.7017 206.65 55.0117 207.325 55.0117 208.155C55.0117 208.535 54.9367 208.92 54.7867 209.31C54.6467 209.69 54.4217 210.075 54.1117 210.465C53.8117 210.855 53.5467 211.175 53.3167 211.425C53.0967 211.675 52.7917 211.995 52.4017 212.385C52.3017 212.485 52.2267 212.56 52.1767 212.61L49.8967 214.905H55.1017V216H48.1567ZM60.7726 216.15C59.5226 216.15 58.5226 215.67 57.7726 214.71C57.0226 213.74 56.6476 212.42 56.6476 210.75C56.6476 209.08 57.0226 207.765 57.7726 206.805C58.5226 205.835 59.5176 205.35 60.7576 205.35C61.9976 205.35 62.9926 205.835 63.7426 206.805C64.5026 207.765 64.8826 209.08 64.8826 210.75C64.8826 212.42 64.5026 213.74 63.7426 214.71C62.9926 215.67 62.0026 216.15 60.7726 216.15ZM60.7726 215.04C61.6326 215.04 62.3226 214.66 62.8426 213.9C63.3726 213.13 63.6376 212.08 63.6376 210.75C63.6376 209.42 63.3726 208.375 62.8426 207.615C62.3126 206.845 61.6176 206.46 60.7576 206.46C59.8976 206.46 59.2026 206.845 58.6726 207.615C58.1526 208.375 57.8926 209.42 57.8926 210.75C57.8926 212.08 58.1526 213.13 58.6726 213.9C59.2026 214.66 59.9026 215.04 60.7726 215.04ZM67.9896 216.075C67.7396 216.075 67.5296 215.995 67.3596 215.835C67.1996 215.665 67.1196 215.455 67.1196 215.205C67.1196 214.965 67.1996 214.765 67.3596 214.605C67.5296 214.435 67.7396 214.35 67.9896 214.35C68.2296 214.35 68.4346 214.435 68.6046 214.605C68.7846 214.765 68.8746 214.965 68.8746 215.205C68.8746 215.445 68.7846 215.65 68.6046 215.82C68.4346 215.99 68.2296 216.075 67.9896 216.075ZM74.6606 216.15C73.8006 216.15 73.0606 215.94 72.4406 215.52C71.8306 215.09 71.4456 214.525 71.2856 213.825L72.3506 213.465C72.4506 213.945 72.7006 214.335 73.1006 214.635C73.5106 214.925 74.0056 215.07 74.5856 215.07C75.3156 215.07 75.9106 214.835 76.3706 214.365C76.8306 213.885 77.0606 213.275 77.0606 212.535C77.0606 211.805 76.8356 211.21 76.3856 210.75C75.9356 210.29 75.3556 210.06 74.6456 210.06C74.0956 210.06 73.6306 210.19 73.2506 210.45C72.8706 210.71 72.6256 211.07 72.5156 211.53L71.4506 211.23V205.5H77.8556V206.58H72.5456V209.88C73.0556 209.27 73.7806 208.965 74.7206 208.965C75.7606 208.965 76.6156 209.295 77.2856 209.955C77.9556 210.615 78.2906 211.48 78.2906 212.55C78.2906 213.62 77.9506 214.49 77.2706 215.16C76.6006 215.82 75.7306 216.15 74.6606 216.15ZM83.9757 216.15C82.7257 216.15 81.7257 215.67 80.9757 214.71C80.2257 213.74 79.8507 212.42 79.8507 210.75C79.8507 209.08 80.2257 207.765 80.9757 206.805C81.7257 205.835 82.7207 205.35 83.9607 205.35C85.2007 205.35 86.1957 205.835 86.9457 206.805C87.7057 207.765 88.0857 209.08 88.0857 210.75C88.0857 212.42 87.7057 213.74 86.9457 214.71C86.1957 215.67 85.2057 216.15 83.9757 216.15ZM83.9757 215.04C84.8357 215.04 85.5257 214.66 86.0457 213.9C86.5757 213.13 86.8407 212.08 86.8407 210.75C86.8407 209.42 86.5757 208.375 86.0457 207.615C85.5157 206.845 84.8207 206.46 83.9607 206.46C83.1007 206.46 82.4057 206.845 81.8757 207.615C81.3557 208.375 81.0957 209.42 81.0957 210.75C81.0957 212.08 81.3557 213.13 81.8757 213.9C82.4057 214.66 83.1057 215.04 83.9757 215.04ZM97.4705 216.15C96.2905 216.15 95.3455 215.78 94.6355 215.04C93.9255 214.29 93.5705 213.305 93.5705 212.085V205.5H94.7855V212.1C94.7855 212.95 95.0355 213.64 95.5355 214.17C96.0355 214.69 96.6805 214.95 97.4705 214.95C98.2705 214.95 98.9105 214.69 99.3905 214.17C99.8805 213.64 100.125 212.95 100.125 212.1V205.5H101.355V212.115C101.355 213.325 101 214.3 100.29 215.04C99.5805 215.78 98.6405 216.15 97.4705 216.15ZM107.38 216.15C106.36 216.15 105.49 215.91 104.77 215.43C104.05 214.94 103.585 214.255 103.375 213.375L104.515 212.97C104.675 213.62 105.015 214.12 105.535 214.47C106.055 214.82 106.67 214.995 107.38 214.995C108.06 214.995 108.62 214.845 109.06 214.545C109.5 214.245 109.72 213.795 109.72 213.195C109.72 212.955 109.67 212.74 109.57 212.55C109.48 212.36 109.37 212.205 109.24 212.085C109.11 211.965 108.925 211.855 108.685 211.755C108.445 211.655 108.23 211.58 108.04 211.53C107.85 211.47 107.595 211.405 107.275 211.335C106.975 211.265 106.78 211.22 106.69 211.2C106.6 211.17 106.41 211.115 106.12 211.035C105.84 210.955 105.645 210.895 105.535 210.855C105.425 210.805 105.25 210.73 105.01 210.63C104.78 210.52 104.61 210.42 104.5 210.33C104.4 210.23 104.27 210.105 104.11 209.955C103.95 209.805 103.835 209.65 103.765 209.49C103.695 209.33 103.63 209.145 103.57 208.935C103.52 208.715 103.495 208.485 103.495 208.245C103.495 207.365 103.81 206.665 104.44 206.145C105.08 205.615 105.915 205.35 106.945 205.35C107.925 205.35 108.755 205.59 109.435 206.07C110.115 206.55 110.555 207.235 110.755 208.125L109.615 208.53C109.465 207.87 109.15 207.37 108.67 207.03C108.2 206.68 107.63 206.505 106.96 206.505C106.33 206.505 105.815 206.66 105.415 206.97C105.015 207.28 104.815 207.7 104.815 208.23C104.815 208.48 104.86 208.7 104.95 208.89C105.05 209.08 105.16 209.235 105.28 209.355C105.41 209.475 105.6 209.59 105.85 209.7C106.1 209.8 106.315 209.875 106.495 209.925C106.675 209.975 106.93 210.04 107.26 210.12C108.33 210.37 109.065 210.59 109.465 210.78C110.515 211.29 111.04 212.095 111.04 213.195C111.04 214.125 110.705 214.85 110.035 215.37C109.365 215.89 108.48 216.15 107.38 216.15ZM113.173 216V205.5H116.578C118.268 205.5 119.583 205.96 120.523 206.88C121.463 207.8 121.933 209.085 121.933 210.735C121.933 212.385 121.463 213.675 120.523 214.605C119.583 215.535 118.268 216 116.578 216H113.173ZM114.403 214.86H116.488C117.808 214.86 118.828 214.495 119.548 213.765C120.268 213.035 120.628 212.025 120.628 210.735C120.628 209.445 120.268 208.44 119.548 207.72C118.828 207 117.808 206.64 116.488 206.64H114.403V214.86Z" fill="#273B4A"/>
<path d="M78.6385 171V167.618C76.7053 167.352 75.055 166.661 73.6876 165.545C72.3202 164.43 71.4244 162.988 71 161.218L73.6876 160.273C73.9705 161.461 74.5599 162.455 75.4558 163.255C76.3517 164.03 77.4126 164.527 78.6385 164.745V155.618C77.554 155.352 76.6464 155.073 75.9155 154.782C75.1847 154.491 74.4303 154.091 73.6523 153.582C72.8743 153.073 72.2849 152.406 71.8841 151.582C71.4833 150.733 71.2829 149.739 71.2829 148.6C71.2829 146.588 71.943 144.964 73.2633 143.727C74.6071 142.467 76.3988 141.752 78.6385 141.582V139H81.0786V141.655C82.9411 141.897 84.5206 142.576 85.8173 143.691C87.1139 144.806 87.9627 146.261 88.3635 148.055L85.6758 149C85.3929 147.788 84.8389 146.806 84.0138 146.055C83.2122 145.279 82.2338 144.77 81.0786 144.527V153.364C82.2102 153.606 83.1415 153.861 83.8723 154.127C84.6031 154.37 85.4047 154.745 86.277 155.255C87.1729 155.764 87.8448 156.467 88.2927 157.364C88.7642 158.236 89 159.279 89 160.491C89 162.673 88.2809 164.394 86.8428 165.655C85.4283 166.891 83.5069 167.57 81.0786 167.691V171H78.6385ZM78.6385 152.782V144.382C77.3654 144.527 76.3399 144.976 75.5619 145.727C74.7839 146.455 74.3949 147.376 74.3949 148.491C74.3949 149.703 74.7603 150.624 75.4912 151.255C76.222 151.885 77.2711 152.394 78.6385 152.782ZM81.0786 164.891C82.5874 164.77 83.778 164.358 84.6503 163.655C85.5226 162.927 85.9587 161.885 85.9587 160.527C85.9587 159.242 85.5344 158.297 84.6857 157.691C83.8605 157.085 82.6582 156.6 81.0786 156.236V164.891Z" fill="#3CC1B3"/>
<path d="M289.099 110.446C289.906 110.634 290.712 110.131 290.899 109.324L293.951 96.1739C294.138 95.3669 293.636 94.5609 292.829 94.3736C292.022 94.1863 291.216 94.6887 291.029 95.4957L288.316 107.185L276.627 104.472C275.82 104.285 275.014 104.787 274.826 105.594C274.639 106.401 275.142 107.207 275.949 107.395L289.099 110.446ZM91.3659 104.283C90.9005 104.968 91.0788 105.901 91.7641 106.366C92.4494 106.832 93.3823 106.653 93.8477 105.968L91.3659 104.283ZM219.792 59.1369C249.35 67.0568 273.162 85.708 288.165 109.779L290.711 108.192C275.322 83.5013 250.89 64.3635 220.569 56.2391L219.792 59.1369ZM93.8477 105.968C120.802 66.2778 170.839 46.0199 219.792 59.1369L220.569 56.2391C170.345 42.7815 119.016 63.5688 91.3659 104.283L93.8477 105.968Z" fill="#EEEEEE"/>
<path d="M89.8826 240.966C89.0683 240.814 88.2847 241.35 88.1325 242.165L85.6513 255.435C85.499 256.249 86.0357 257.033 86.8501 257.185C87.6644 257.337 88.4479 256.8 88.6002 255.986L90.8057 244.191L102.601 246.396C103.416 246.548 104.199 246.012 104.351 245.197C104.504 244.383 103.967 243.599 103.153 243.447L89.8826 240.966ZM284.604 243.288C285.072 242.605 284.898 241.671 284.215 241.203C283.531 240.735 282.598 240.909 282.129 241.592L284.604 243.288ZM156.461 288.018C128.653 280.567 105.93 263.617 90.8444 241.593L88.3694 243.288C103.845 265.881 127.159 283.273 155.685 290.916L156.461 288.018ZM282.129 241.592C255.11 281.015 205.247 301.09 156.461 288.018L155.685 290.916C205.738 304.328 256.888 283.728 284.604 243.288L282.129 241.592Z" fill="#EEEEEE"/>
<defs>
<filter id="filter0_b_0_1" x="-30" y="-30" width="431" height="408" filterUnits="userSpaceOnUse" color-interpolation-filters="sRGB">
<feFlood flood-opacity="0" result="BackgroundImageFix"/>
<feGaussianBlur in="BackgroundImageFix" stdDeviation="15"/>
<feComposite in2="SourceAlpha" operator="in" result="effect1_backgroundBlur_0_1"/>
<feBlend mode="normal" in="SourceGraphic" in2="effect1_backgroundBlur_0_1" result="shape"/>
</filter>
<filter id="filter1_d_0_1" x="261.409" y="121.239" width="75.2989" height="78.6928" filterUnits="userSpaceOnUse" color-interpolation-filters="sRGB">
<feFlood flood-opacity="0" result="BackgroundImageFix"/>
<feColorMatrix in="SourceAlpha" type="matrix" values="0 0 0 0 0 0 0 0 0 0 0 0 0 0 0 0 0 0 127 0" result="hardAlpha"/>
<feOffset dy="4"/>
<feGaussianBlur stdDeviation="2"/>
<feComposite in2="hardAlpha" operator="out"/>
<feColorMatrix type="matrix" values="0 0 0 0 0.933333 0 0 0 0 0.933333 0 0 0 0 0.933333 0 0 0 1 0"/>
<feBlend mode="normal" in2="BackgroundImageFix" result="effect1_dropShadow_0_1"/>
<feBlend mode="normal" in="SourceGraphic" in2="effect1_dropShadow_0_1" result="shape"/>
</filter>
<filter id="filter2_d_0_1" x="42.3768" y="118.921" width="75.2989" height="78.6928" filterUnits="userSpaceOnUse" color-interpolation-filters="sRGB">
<feFlood flood-opacity="0" result="BackgroundImageFix"/>
<feColorMatrix in="SourceAlpha" type="matrix" values="0 0 0 0 0 0 0 0 0 0 0 0 0 0 0 0 0 0 127 0" result="hardAlpha"/>
<feOffset dy="4"/>
<feGaussianBlur stdDeviation="2"/>
<feComposite in2="hardAlpha" operator="out"/>
<feColorMatrix type="matrix" values="0 0 0 0 0.933333 0 0 0 0 0.933333 0 0 0 0 0.933333 0 0 0 1 0"/>
<feBlend mode="normal" in2="BackgroundImageFix" result="effect1_dropShadow_0_1"/>
<feBlend mode="normal" in="SourceGraphic" in2="effect1_dropShadow_0_1" result="shape"/>
</filter>
</defs>
</svg>
