<svg width="65" height="62" viewBox="0 0 65 62" fill="none" xmlns="http://www.w3.org/2000/svg">
<g filter="url(#filter0_d_6_4)">
<ellipse cx="32.5" cy="27" rx="28.5" ry="27" fill="white"/>
</g>
<path d="M42.65 20.7778H41.2V19.3333C41.2 18.1841 40.7417 17.0819 39.9259 16.2692C39.1101 15.4565 38.0037 15 36.85 15H22.35C21.1963 15 20.0899 15.4565 19.2741 16.2692C18.4583 17.0819 18 18.1841 18 19.3333V36.6667C18 37.8159 18.4583 38.9181 19.2741 39.7308C20.0899 40.5435 21.1963 41 22.35 41H42.65C43.8037 41 44.9101 40.5435 45.7259 39.7308C46.5417 38.9181 47 37.8159 47 36.6667V25.1111C47 23.9618 46.5417 22.8596 45.7259 22.047C44.9101 21.2343 43.8037 20.7778 42.65 20.7778ZM22.35 17.8889H36.85C37.2346 17.8889 37.6034 18.0411 37.8753 18.312C38.1472 18.5828 38.3 18.9502 38.3 19.3333V20.7778H22.35C21.9654 20.7778 21.5966 20.6256 21.3247 20.3547C21.0528 20.0838 20.9 19.7164 20.9 19.3333C20.9 18.9502 21.0528 18.5828 21.3247 18.312C21.5966 18.0411 21.9654 17.8889 22.35 17.8889ZM44.1 32.3333H42.65C42.2654 32.3333 41.8966 32.1812 41.6247 31.9103C41.3528 31.6394 41.2 31.272 41.2 30.8889C41.2 30.5058 41.3528 30.1384 41.6247 29.8675C41.8966 29.5966 42.2654 29.4444 42.65 29.4444H44.1V32.3333ZM44.1 26.5556H42.65C41.4963 26.5556 40.3899 27.0121 39.5741 27.8248C38.7583 28.6374 38.3 29.7396 38.3 30.8889C38.3 32.0382 38.7583 33.1404 39.5741 33.953C40.3899 34.7657 41.4963 35.2222 42.65 35.2222H44.1V36.6667C44.1 37.0498 43.9472 37.4172 43.6753 37.688C43.4034 37.9589 43.0346 38.1111 42.65 38.1111H22.35C21.9654 38.1111 21.5966 37.9589 21.3247 37.688C21.0528 37.4172 20.9 37.0498 20.9 36.6667V23.4211C21.3658 23.5844 21.8562 23.6674 22.35 23.6667H42.65C43.0346 23.6667 43.4034 23.8188 43.6753 24.0897C43.9472 24.3606 44.1 24.728 44.1 25.1111V26.5556Z" fill="#3CC1B3"/>
<defs>
<filter id="filter0_d_6_4" x="0" y="0" width="65" height="62" filterUnits="userSpaceOnUse" color-interpolation-filters="sRGB">
<feFlood flood-opacity="0" result="BackgroundImageFix"/>
<feColorMatrix in="SourceAlpha" type="matrix" values="0 0 0 0 0 0 0 0 0 0 0 0 0 0 0 0 0 0 127 0" result="hardAlpha"/>
<feOffset dy="4"/>
<feGaussianBlur stdDeviation="2"/>
<feComposite in2="hardAlpha" operator="out"/>
<feColorMatrix type="matrix" values="0 0 0 0 0.933333 0 0 0 0 0.933333 0 0 0 0 0.933333 0 0 0 1 0"/>
<feBlend mode="normal" in2="BackgroundImageFix" result="effect1_dropShadow_6_4"/>
<feBlend mode="normal" in="SourceGraphic" in2="effect1_dropShadow_6_4" result="shape"/>
</filter>
</defs>
</svg>
