<svg width="43" height="43" viewBox="0 0 43 43" fill="none" xmlns="http://www.w3.org/2000/svg">
<path fill-rule="evenodd" clip-rule="evenodd" d="M21.5 43C9.62588 43 0 33.3741 0 21.5C0 9.62588 9.62588 0 21.5 0C33.3741 0 43 9.62588 43 21.5C43 33.3741 33.3741 43 21.5 43ZM22.4297 16.1349C20.5041 16.9358 16.6556 18.5935 10.8843 21.108C9.94709 21.4807 9.45615 21.8453 9.41146 22.2018C9.33593 22.8043 10.0904 23.0415 11.1178 23.3646C11.2576 23.4085 11.4024 23.4541 11.5508 23.5023C12.5617 23.8309 13.9214 24.2153 14.6283 24.2306C15.2695 24.2444 15.9851 23.9801 16.7752 23.4376C22.1676 19.7976 24.9511 17.9577 25.1259 17.9181C25.2492 17.8901 25.42 17.8549 25.5358 17.9578C25.6515 18.0607 25.6402 18.2555 25.6279 18.3078C25.5532 18.6264 22.5915 21.3799 21.0589 22.8047C20.5811 23.249 20.2421 23.5641 20.1729 23.636C20.0177 23.7972 19.8595 23.9497 19.7075 24.0963C18.7684 25.0015 18.0642 25.6804 19.7464 26.789C20.5549 27.3218 21.2018 27.7623 21.8472 28.2018C22.552 28.6818 23.255 29.1605 24.1646 29.7568C24.3963 29.9087 24.6176 30.0665 24.8332 30.2201C25.6534 30.8049 26.3904 31.3303 27.3008 31.2465C27.8298 31.1978 28.3762 30.7004 28.6537 29.2168C29.3096 25.7106 30.5988 18.1139 30.8967 14.9834C30.9228 14.7092 30.89 14.3582 30.8636 14.2041C30.8372 14.05 30.7821 13.8305 30.5818 13.6679C30.3446 13.4755 29.9784 13.4349 29.8147 13.4376C29.0701 13.4509 27.9276 13.8481 22.4297 16.1349Z" fill="#273B4A"/>
</svg>
