<svg width="44" height="44" viewBox="0 0 44 44" fill="none" xmlns="http://www.w3.org/2000/svg">
<path fill-rule="evenodd" clip-rule="evenodd" d="M0 22C0 9.84974 9.84974 0 22 0C34.1503 0 44 9.84974 44 22C44 34.1503 34.1503 44 22 44C9.84974 44 0 34.1503 0 22ZM30.3875 15.8125C31.35 15.675 32.175 15.5375 33 15.125C32.45 16.0875 31.625 16.9125 30.6625 17.4625C30.9375 23.925 26.2625 30.9375 17.875 30.9375C15.4 30.9375 13.0625 30.1125 11 28.875C13.3375 29.15 15.8125 28.4625 17.4625 27.225C15.4 27.225 13.75 25.85 13.2 24.0625C13.8875 24.2 14.575 24.0625 15.2625 23.925C13.2 23.375 11.6875 21.45 11.6875 19.3875C12.375 19.6625 13.0625 19.9375 13.75 19.9375C11.825 18.5625 11.1375 15.95 12.375 13.8875C14.7125 16.6375 18.0125 18.425 21.725 18.5625C21.0375 15.8125 23.2375 13.0625 26.125 13.0625C27.3625 13.0625 28.6 13.6125 29.425 14.4375C30.525 14.1625 31.4875 13.8875 32.3125 13.3375C32.0375 14.4375 31.35 15.2625 30.3875 15.8125Z" fill="#273B4A"/>
</svg>
